<svg width="24" height="24" viewBox="0 0 24 24" fill="none" xmlns="http://www.w3.org/2000/svg">
<g clip-path="url(#clip0_115_442)">
<path d="M4.5 17.5002H2C1.46957 17.5002 0.960859 17.711 0.585786 18.086C0.210714 18.4611 0 18.9698 0 19.5002L0 22.0002C0 22.5307 0.210714 23.0394 0.585786 23.4144C0.960859 23.7895 1.46957 24.0002 2 24.0002H4.5C5.03043 24.0002 5.53914 23.7895 5.91421 23.4144C6.28929 23.0394 6.5 22.5307 6.5 22.0002V19.5002C6.5 18.9698 6.28929 18.4611 5.91421 18.086C5.53914 17.711 5.03043 17.5002 4.5 17.5002ZM4.5 22.0002H2V19.5002H4.5V22.0002Z" fill="#737373"/>
<path d="M22.0001 17.5002H19.5001C18.9696 17.5002 18.4609 17.711 18.0858 18.086C17.7108 18.4611 17.5001 18.9698 17.5001 19.5002V22.0002C17.5001 22.5307 17.7108 23.0394 18.0858 23.4144C18.4609 23.7895 18.9696 24.0002 19.5001 24.0002H22.0001C22.5305 24.0002 23.0392 23.7895 23.4143 23.4144C23.7893 23.0394 24 22.5307 24 22.0002V19.5002C24 18.9698 23.7893 18.4611 23.4143 18.086C23.0392 17.711 22.5305 17.5002 22.0001 17.5002ZM22.0001 22.0002H19.5001V19.5002H22.0001V22.0002Z" fill="#737373"/>
<path d="M4.5 8.74976H2C1.46957 8.74976 0.960859 8.96047 0.585786 9.33554C0.210714 9.71061 0 10.2193 0 10.7498L0 13.2497C0 13.7802 0.210714 14.2889 0.585786 14.664C0.960859 15.039 1.46957 15.2497 2 15.2497H4.5C5.03043 15.2497 5.53914 15.039 5.91421 14.664C6.28929 14.2889 6.5 13.7802 6.5 13.2497V10.7498C6.5 10.2193 6.28929 9.71061 5.91421 9.33554C5.53914 8.96047 5.03043 8.74976 4.5 8.74976ZM4.5 13.2497H2V10.7498H4.5V13.2497Z" fill="#737373"/>
<path d="M22.0001 8.74976H19.5001C18.9696 8.74976 18.4609 8.96047 18.0858 9.33554C17.7108 9.71061 17.5001 10.2193 17.5001 10.7498V13.2497C17.5001 13.7802 17.7108 14.2889 18.0858 14.664C18.4609 15.039 18.9696 15.2497 19.5001 15.2497H22.0001C22.5305 15.2497 23.0392 15.039 23.4143 14.664C23.7893 14.2889 24 13.7802 24 13.2497V10.7498C24 10.2193 23.7893 9.71061 23.4143 9.33554C23.0392 8.96047 22.5305 8.74976 22.0001 8.74976ZM22.0001 13.2497H19.5001V10.7498H22.0001V13.2497Z" fill="#737373"/>
<path d="M4.5 0H2C1.46957 0 0.960859 0.210714 0.585786 0.585786C0.210714 0.960859 0 1.46957 0 2L0 4.5C0 5.03043 0.210714 5.53914 0.585786 5.91421C0.960859 6.28929 1.46957 6.5 2 6.5H4.5C5.03043 6.5 5.53914 6.28929 5.91421 5.91421C6.28929 5.53914 6.5 5.03043 6.5 4.5V2C6.5 1.46957 6.28929 0.960859 5.91421 0.585786C5.53914 0.210714 5.03043 0 4.5 0V0ZM4.5 4.5H2V2H4.5V4.5Z" fill="#737373"/>
<path d="M13.2499 17.5002H10.7499C10.2195 17.5002 9.7108 17.711 9.33572 18.086C8.96065 18.4611 8.74994 18.9698 8.74994 19.5002V22.0002C8.74994 22.5307 8.96065 23.0394 9.33572 23.4144C9.7108 23.7895 10.2195 24.0002 10.7499 24.0002H13.2499C13.7804 24.0002 14.2891 23.7895 14.6641 23.4144C15.0392 23.0394 15.2499 22.5307 15.2499 22.0002V19.5002C15.2499 18.9698 15.0392 18.4611 14.6641 18.086C14.2891 17.711 13.7804 17.5002 13.2499 17.5002ZM13.2499 22.0002H10.7499V19.5002H13.2499V22.0002Z" fill="#737373"/>
<path d="M13.2499 8.74976H10.7499C10.2195 8.74976 9.7108 8.96047 9.33572 9.33554C8.96065 9.71061 8.74994 10.2193 8.74994 10.7498V13.2497C8.74994 13.7802 8.96065 14.2889 9.33572 14.664C9.7108 15.039 10.2195 15.2497 10.7499 15.2497H13.2499C13.7804 15.2497 14.2891 15.039 14.6641 14.664C15.0392 14.2889 15.2499 13.7802 15.2499 13.2497V10.7498C15.2499 10.2193 15.0392 9.71061 14.6641 9.33554C14.2891 8.96047 13.7804 8.74976 13.2499 8.74976ZM13.2499 13.2497H10.7499V10.7498H13.2499V13.2497Z" fill="#737373"/>
<path d="M13.2499 0H10.7499C10.2195 0 9.7108 0.210714 9.33572 0.585786C8.96065 0.960859 8.74994 1.46957 8.74994 2V4.5C8.74994 5.03043 8.96065 5.53914 9.33572 5.91421C9.7108 6.28929 10.2195 6.5 10.7499 6.5H13.2499C13.7804 6.5 14.2891 6.28929 14.6641 5.91421C15.0392 5.53914 15.2499 5.03043 15.2499 4.5V2C15.2499 1.46957 15.0392 0.960859 14.6641 0.585786C14.2891 0.210714 13.7804 0 13.2499 0V0ZM13.2499 4.5H10.7499V2H13.2499V4.5Z" fill="#737373"/>
<path d="M22.0001 0H19.5001C18.9696 0 18.4609 0.210714 18.0858 0.585786C17.7108 0.960859 17.5001 1.46957 17.5001 2V4.5C17.5001 5.03043 17.7108 5.53914 18.0858 5.91421C18.4609 6.28929 18.9696 6.5 19.5001 6.5H22.0001C22.5305 6.5 23.0392 6.28929 23.4143 5.91421C23.7893 5.53914 24 5.03043 24 4.5V2C24 1.46957 23.7893 0.960859 23.4143 0.585786C23.0392 0.210714 22.5305 0 22.0001 0V0ZM22.0001 4.5H19.5001V2H22.0001V4.5Z" fill="#737373"/>
</g>
<defs>
<clipPath id="clip0_115_442">
<rect width="24" height="24" fill="white"/>
</clipPath>
</defs>
</svg>
