<svg width="16" height="17" viewBox="0 0 16 17" fill="none" xmlns="http://www.w3.org/2000/svg">
<path d="M4.34638 11.6337L5.35598 9.1097C5.51689 8.7076 5.75776 8.34236 6.06398 8.0361L11.6 2.5017C11.9182 2.18344 12.3499 2.00464 12.8 2.00464C13.2501 2.00464 13.6817 2.18344 14 2.5017C14.3182 2.81995 14.497 3.25161 14.497 3.70169C14.497 4.15178 14.3182 4.58344 14 4.9017L8.46398 10.4361C8.15758 10.7425 7.79198 10.9841 7.38958 11.1449L4.86638 12.1545C4.79368 12.1836 4.71405 12.1907 4.63735 12.175C4.56065 12.1592 4.49025 12.1213 4.43489 12.066C4.37952 12.0106 4.34162 11.9402 4.32589 11.8635C4.31016 11.7868 4.31728 11.7072 4.34638 11.6345V11.6337Z" fill="#133E87"/>
<path d="M2.79998 5.1001C2.79998 4.54809 3.24798 4.1001 3.79998 4.1001H7.99998C8.15911 4.1001 8.31172 4.03688 8.42424 3.92436C8.53676 3.81184 8.59998 3.65922 8.59998 3.5001C8.59998 3.34097 8.53676 3.18835 8.42424 3.07583C8.31172 2.96331 8.15911 2.90009 7.99998 2.90009H3.79998C3.2165 2.90009 2.65692 3.13188 2.24434 3.54446C1.83176 3.95704 1.59998 4.51662 1.59998 5.1001V12.7001C1.59998 13.2836 1.83176 13.8432 2.24434 14.2557C2.65692 14.6683 3.2165 14.9001 3.79998 14.9001H11.4C11.9835 14.9001 12.543 14.6683 12.9556 14.2557C13.3682 13.8432 13.6 13.2836 13.6 12.7001V8.50009C13.6 8.34096 13.5368 8.18835 13.4242 8.07583C13.3117 7.96331 13.1591 7.90009 13 7.90009C12.8408 7.90009 12.6882 7.96331 12.5757 8.07583C12.4632 8.18835 12.4 8.34096 12.4 8.50009V12.7001C12.4 13.2521 11.952 13.7001 11.4 13.7001H3.79998C3.24798 13.7001 2.79998 13.2521 2.79998 12.7001V5.1001Z" fill="#133E87"/>
</svg>
