<svg width="16" height="16" viewBox="0 0 16 16" fill="none" xmlns="http://www.w3.org/2000/svg">
<path fill-rule="evenodd" clip-rule="evenodd" d="M7.00005 0.800049C6.41657 0.800049 5.85699 1.03183 5.44441 1.44441C5.03183 1.85699 4.80005 2.41657 4.80005 3.00005V3.35445C4.16405 3.41605 3.53285 3.49525 2.90805 3.59285C2.82905 3.60361 2.75298 3.63001 2.6843 3.67051C2.61562 3.711 2.5557 3.76478 2.50804 3.8287C2.46038 3.89261 2.42593 3.96539 2.40672 4.04277C2.38751 4.12015 2.38391 4.20059 2.39614 4.27937C2.40836 4.35816 2.43617 4.43372 2.47793 4.50164C2.5197 4.56956 2.57458 4.62847 2.63937 4.67494C2.70416 4.7214 2.77757 4.75449 2.85529 4.77226C2.93301 4.79003 3.0135 4.79214 3.09205 4.77845L3.21125 4.76085L3.88405 13.1752C3.9281 13.7266 4.17821 14.2411 4.58458 14.6164C4.99094 14.9916 5.52374 15.2 6.07685 15.2H9.92245C10.4756 15.2002 11.0085 14.992 11.415 14.6169C11.8215 14.2418 12.0718 13.7274 12.116 13.176L12.7888 4.76005L12.908 4.77845C13.0638 4.79967 13.2217 4.75891 13.3477 4.66494C13.4737 4.57097 13.5578 4.4313 13.5819 4.27596C13.606 4.12062 13.5682 3.96202 13.4766 3.83427C13.385 3.70653 13.2469 3.61984 13.092 3.59285C12.4638 3.49508 11.8329 3.41557 11.2 3.35445V3.00005C11.2 2.41657 10.9683 1.85699 10.5557 1.44441C10.1431 1.03183 9.58352 0.800049 9.00005 0.800049H7.00005ZM8.00005 3.20005C8.67205 3.20005 9.33845 3.22005 10 3.26005V3.00005C10 2.44805 9.55205 2.00005 9.00005 2.00005H7.00005C6.44805 2.00005 6.00005 2.44805 6.00005 3.00005V3.26005C6.66165 3.22005 7.32805 3.20005 8.00005 3.20005ZM6.86405 6.17605C6.85768 6.01692 6.78836 5.86683 6.67134 5.75881C6.55432 5.65079 6.39918 5.59368 6.24005 5.60005C6.08092 5.60641 5.93083 5.67573 5.82281 5.79276C5.71479 5.90978 5.65768 6.06492 5.66405 6.22405L5.90405 12.224C5.9072 12.3028 5.92584 12.3802 5.95891 12.4518C5.99197 12.5234 6.03881 12.5878 6.09675 12.6413C6.1547 12.6948 6.22261 12.7363 6.29661 12.7636C6.37061 12.7908 6.44926 12.8032 6.52805 12.8C6.60684 12.7969 6.68424 12.7783 6.75583 12.7452C6.82742 12.7121 6.8918 12.6653 6.94528 12.6073C6.99877 12.5494 7.04032 12.4815 7.06756 12.4075C7.0948 12.3335 7.1072 12.2548 7.10405 12.176L6.86405 6.17605ZM10.336 6.22405C10.3392 6.14526 10.3268 6.06661 10.2996 5.99261C10.2723 5.91861 10.2308 5.8507 10.1773 5.79276C10.1238 5.73481 10.0594 5.68797 9.98783 5.65491C9.91624 5.62184 9.83884 5.6032 9.76005 5.60005C9.60092 5.59368 9.44578 5.65079 9.32875 5.75881C9.21173 5.86683 9.14241 6.01692 9.13605 6.17605L8.89605 12.176C8.8929 12.2548 8.9053 12.3335 8.93254 12.4075C8.95978 12.4815 9.00133 12.5494 9.05481 12.6073C9.1083 12.6653 9.17268 12.7121 9.24427 12.7452C9.31585 12.7783 9.39326 12.7969 9.47205 12.8C9.55084 12.8032 9.62948 12.7908 9.70349 12.7636C9.77749 12.7363 9.8454 12.6948 9.90334 12.6413C9.96129 12.5878 10.0081 12.5234 10.0412 12.4518C10.0743 12.3802 10.0929 12.3028 10.096 12.224L10.336 6.22405Z" fill="#DD5B5B"/>
</svg>
